<svg width="22" height="22" viewBox="0 0 22 22" fill="none" xmlns="http://www.w3.org/2000/svg">
<path fill-rule="evenodd" clip-rule="evenodd" d="M4.00012 10.9793C4.00005 10.9793 4 10.9793 4 10.9794V10.9794C4 14.8454 7.13401 17.9925 11 17.9925C14.866 17.9925 18 14.8454 18 10.9794C18 7.45189 15.3908 4.5229 11.997 4.03705C11.4503 3.95878 11 4.41402 11 4.96631V4.96631C11 5.51859 11.4523 5.95587 11.9935 6.06565C14.276 6.52857 16 8.55437 16 10.9794C16 13.7457 13.7566 15.9925 11 15.9925C8.24344 15.9925 6 13.7457 6 10.9794V10.9794C6 10.9793 5.99995 10.9793 5.99988 10.9793H4.00012Z" fill="#6807F9"/>
<path fill-rule="evenodd" clip-rule="evenodd" d="M0.949616 9.97741C0.437373 9.97741 0.00493445 10.3684 0.000433428 10.8807C0.000144676 10.9135 0 10.9464 0 10.9794C0 17.0545 4.92487 21.9999 11 21.9999C17.0751 21.9999 22 17.0545 22 10.9794C22 5.24105 17.6061 0.510652 11.9992 0.00374338C11.4492 -0.0459851 11 0.406501 11 0.958786V0.958786C11 1.51107 11.4495 1.95293 11.9984 2.01384C16.4953 2.51281 20 6.342 20 10.9794C20 15.9548 15.9657 19.9999 11 19.9999C6.0343 19.9999 2 15.9548 2 10.9794V10.9794C2 10.4437 1.58677 9.97741 1.05111 9.97741H0.949616Z" fill="#6807F9"/>
<rect x="9" y="8.97367" width="4" height="4.01122" rx="2" stroke="#6807F9" stroke-width="2"/>
<rect y="9.97741" width="10" height="2.00374" rx="1" fill="#6807F9"/>
</svg>
